<?xml version="1.0" standalone="no"?>
<!DOCTYPE svg PUBLIC "-//W3C//DTD SVG 20010904//EN"
 "http://www.w3.org/TR/2001/REC-SVG-20010904/DTD/svg10.dtd">
<svg version="1.0" xmlns="http://www.w3.org/2000/svg"
 width="512.000000pt" height="512.000000pt" viewBox="0 0 512.000000 512.000000"
 preserveAspectRatio="xMidYMid meet">
<metadata>
Created by potrace 1.11, written by Peter Selinger 2001-2013
</metadata>
<g transform="translate(0.000000,512.000000) scale(0.100000,-0.100000)"
fill="#000000" stroke="none">
<path d="M1265 4941 c-22 -10 -54 -34 -72 -52 -67 -71 -63 2 -63 -1174 0
-1176 -4 -1104 63 -1173 18 -19 50 -43 72 -55 38 -20 56 -22 329 -25 l289 -4
621 619 c682 681 657 660 807 685 131 23 258 -17 364 -114 l55 -50 0 582 c0
413 -3 594 -12 621 -15 52 -73 117 -122 140 -39 18 -94 19 -1166 19 -1075 0
-1127 -1 -1165 -19z m618 -412 c154 -42 198 -263 73 -366 -92 -75 -203 -69
-287 16 -157 157 -3 411 214 350z m1220 0 c83 -23 147 -110 147 -201 -1 -188
-213 -286 -350 -162 -50 45 -71 93 -71 157 0 65 14 103 54 146 60 63 136 84
220 60z m-610 -610 c83 -23 147 -111 147 -204 0 -200 -236 -287 -371 -138
-142 157 18 400 224 342z m-612 -610 c157 -48 200 -257 76 -366 -116 -102
-299 -46 -343 105 -22 75 -6 141 50 200 61 64 135 85 217 61z"/>
<path d="M3300 3558 c-47 -15 -1543 -1503 -1571 -1563 -25 -54 -24 -137 2
-195 15 -35 196 -221 787 -813 509 -510 784 -778 817 -798 64 -37 153 -40 218
-8 53 27 1496 1463 1535 1529 23 38 27 57 27 115 0 48 -6 81 -19 105 -24 46
-1549 1574 -1603 1607 -49 29 -138 39 -193 21z m121 -783 c220 -78 184 -404
-48 -431 -132 -16 -244 86 -244 221 0 99 55 177 148 211 50 18 91 17 144 -1z
m-640 -636 c117 -36 185 -185 136 -301 -39 -94 -152 -151 -252 -129 -201 45
-238 318 -56 413 58 30 109 35 172 17z m1424 -138 c80 -36 135 -122 135 -212
0 -57 -48 -139 -101 -175 -81 -54 -167 -54 -247 0 -181 121 -95 406 123 406
28 0 68 -9 90 -19z m-628 -642 c210 -102 134 -419 -101 -419 -70 0 -121 24
-169 81 -91 106 -56 272 72 339 50 27 141 26 198 -1z"/>
<path d="M185 2781 c-78 -19 -152 -88 -173 -160 -9 -28 -12 -321 -12 -1092 l0
-1054 24 -50 c25 -54 71 -100 123 -122 27 -11 235 -13 1155 -13 1073 0 1125 1
1163 19 49 23 99 74 119 123 10 23 16 68 16 115 l0 78 -362 362 c-310 309
-366 360 -383 353 -11 -5 -33 -9 -50 -9 -127 -3 -233 121 -207 244 7 35 4 46
-26 95 -50 83 -65 147 -60 254 4 91 23 152 66 216 10 15 17 45 17 72 l0 48
-115 0 c-63 0 -144 5 -180 11 -145 23 -266 112 -330 243 -30 60 -35 81 -39
170 l-6 101 -355 2 c-195 0 -368 -2 -385 -6z m715 -383 c165 -84 134 -332 -47
-378 -152 -38 -291 113 -242 261 40 119 176 174 289 117z m1 -681 c125 -66
145 -235 39 -331 -133 -120 -341 -23 -340 159 0 37 30 102 60 134 59 61 165
78 241 38z m-23 -673 c139 -58 175 -229 69 -334 -101 -101 -266 -68 -328 65
-73 158 98 337 259 269z m1011 -10 c71 -36 104 -86 109 -168 3 -50 -1 -69 -20
-106 -63 -118 -214 -145 -314 -57 -88 76 -94 200 -15 288 63 71 152 87 240 43z"/>
</g>
</svg>
